<svg xmlns="http://www.w3.org/2000/svg" viewBox="0 0 760 340" role="img" aria-label="Space expands a mechanism query into papers, repositories, standards, and a scoped finding"><g class="route"><path d="M140 170H228V72H364"/><path d="M140 170H364"/><path d="M140 170H228V268H364"/><path d="M466 72H536V170H636"/><path d="M466 170H636"/><path d="M466 268H536V170"/></g><g class="block"><rect x="34" y="136" width="106" height="68" class="core"/><rect x="364" y="44" width="102" height="56"/><rect x="364" y="142" width="102" height="56"/><rect x="364" y="240" width="102" height="56"/><rect x="636" y="136" width="92" height="68" class="pass"/></g><g class="label"><text x="87" y="165">MECHANISM</text><text x="87" y="182">QUERY</text><text x="415" y="68">PAPERS</text><text x="415" y="84">+ CITATIONS</text><text x="415" y="166">REPOS</text><text x="415" y="182">+ DOCS</text><text x="415" y="264">STANDARDS</text><text x="415" y="280">+ CURRENT</text><text x="682" y="164">SCOPED</text><text x="682" y="181">FINDING</text></g></svg>